<svg xmlns="http://www.w3.org/2000/svg" width="800" height="428" viewBox="0 0 800 428" role="img" aria-labelledby="title description">
  <title id="title">Most used languages across 215 public repositories</title>
  <desc id="description">Language distribution calculated from GitHub's reported byte counts for every public, owned, non-fork repository.</desc>
  <style>
    .heading { fill: #58a6ff; font: 600 22px -apple-system, BlinkMacSystemFont, "Segoe UI", sans-serif; }
    .caption { fill: #8b949e; font: 14px -apple-system, BlinkMacSystemFont, "Segoe UI", sans-serif; }
    .label { fill: #c9d1d9; font: 600 15px -apple-system, BlinkMacSystemFont, "Segoe UI", sans-serif; }
    .value { fill: #8b949e; font: 14px -apple-system, BlinkMacSystemFont, "Segoe UI", sans-serif; }
  </style>
  <rect width="800" height="428" rx="12" fill="#0d1117" />
  <text x="24" y="42" class="heading">Most used languages</text>
  <text x="24" y="70" class="caption">All 215 public, owned, non-fork repositories · 32 detected languages</text>
  <circle cx="28" cy="113" r="6" fill="#f1e05a" />
  <text x="44" y="118" class="label">JavaScript</text>
  <rect x="210" y="102" width="500" height="12" rx="6" fill="#21262d" />
  <rect x="210" y="102" width="203.0" height="12" rx="6" fill="#f1e05a" />
  <text x="770" y="118" class="value" text-anchor="end">40.6%</text>
  <circle cx="28" cy="149" r="6" fill="#663399" />
  <text x="44" y="154" class="label">CSS</text>
  <rect x="210" y="138" width="500" height="12" rx="6" fill="#21262d" />
  <rect x="210" y="138" width="69.1" height="12" rx="6" fill="#663399" />
  <text x="770" y="154" class="value" text-anchor="end">13.8%</text>
  <circle cx="28" cy="185" r="6" fill="#e34c26" />
  <text x="44" y="190" class="label">HTML</text>
  <rect x="210" y="174" width="500" height="12" rx="6" fill="#21262d" />
  <rect x="210" y="174" width="60.3" height="12" rx="6" fill="#e34c26" />
  <text x="770" y="190" class="value" text-anchor="end">12.1%</text>
  <circle cx="28" cy="221" r="6" fill="#3178c6" />
  <text x="44" y="226" class="label">TypeScript</text>
  <rect x="210" y="210" width="500" height="12" rx="6" fill="#21262d" />
  <rect x="210" y="210" width="42.4" height="12" rx="6" fill="#3178c6" />
  <text x="770" y="226" class="value" text-anchor="end">8.5%</text>
  <circle cx="28" cy="257" r="6" fill="#b07219" />
  <text x="44" y="262" class="label">Java</text>
  <rect x="210" y="246" width="500" height="12" rx="6" fill="#21262d" />
  <rect x="210" y="246" width="37.0" height="12" rx="6" fill="#b07219" />
  <text x="770" y="262" class="value" text-anchor="end">7.4%</text>
  <circle cx="28" cy="293" r="6" fill="#3572A5" />
  <text x="44" y="298" class="label">Python</text>
  <rect x="210" y="282" width="500" height="12" rx="6" fill="#21262d" />
  <rect x="210" y="282" width="18.0" height="12" rx="6" fill="#3572A5" />
  <text x="770" y="298" class="value" text-anchor="end">3.6%</text>
  <circle cx="28" cy="329" r="6" fill="#4F5D95" />
  <text x="44" y="334" class="label">PHP</text>
  <rect x="210" y="318" width="500" height="12" rx="6" fill="#21262d" />
  <rect x="210" y="318" width="17.3" height="12" rx="6" fill="#4F5D95" />
  <text x="770" y="334" class="value" text-anchor="end">3.5%</text>
  <circle cx="28" cy="365" r="6" fill="#178600" />
  <text x="44" y="370" class="label">C#</text>
  <rect x="210" y="354" width="500" height="12" rx="6" fill="#21262d" />
  <rect x="210" y="354" width="8.4" height="12" rx="6" fill="#178600" />
  <text x="770" y="370" class="value" text-anchor="end">1.7%</text>
</svg>